####
#
# OBJ File Generated by Meshlab
#
####
# Object Joint1Coll.obj
#
# Vertices: 56
# Faces: 36
#
####
vn -1.570796 0.000000 0.000000
v -199.510910 40.000626 40.000000
vn -1.570796 0.000000 0.000000
v -199.510910 -40.000626 40.000000
vn -1.570796 0.000000 0.000000
v -199.510910 40.000626 96.400009
vn -1.570796 0.000000 0.000000
v -199.510910 -40.000626 96.400009
vn 0.000000 0.000000 1.570796
v -50.000000 -40.000626 96.400009
vn 0.000000 0.000000 1.570796
v -50.000000 40.000626 96.400009
vn 0.000000 0.000000 1.570796
v -199.510910 -40.000626 96.400009
vn 0.000000 0.000000 1.570796
v -199.510910 40.000626 96.400009
vn 0.000000 0.000000 1.570796
v 22.916616 -40.000626 150.500000
vn 0.000000 0.000000 1.570796
v 22.916616 40.000626 150.500000
vn 0.000000 0.000000 1.570796
v -23.042074 -40.000626 150.500000
vn 0.000000 0.000000 1.570796
v -23.042074 40.000626 150.500000
vn 0.000000 0.000000 -1.570796
v -50.000000 -40.000626 0.000000
vn 0.000000 0.000000 -1.570796
v -50.000000 40.000626 0.000000
vn 0.000000 0.000000 -1.570796
v 50.250000 -40.000626 0.000000
vn 0.000000 0.000000 -1.570796
v 50.250000 40.000626 0.000000
vn -1.570796 0.000000 0.000000
v -50.000000 40.000626 0.000000
vn -1.570796 0.000000 0.000000
v -50.000000 -40.000626 0.000000
vn -1.570796 0.000000 0.000000
v -50.000000 40.000626 40.000000
vn -1.570796 0.000000 0.000000
v -50.000000 -40.000626 40.000000
vn 0.000000 0.000000 -1.570796
v -199.510910 -40.000626 40.000000
vn 0.000000 0.000000 -1.570796
v -199.510910 40.000626 40.000000
vn 0.000000 0.000000 -1.570796
v -50.000000 -40.000626 40.000000
vn 0.000000 0.000000 -1.570796
v -50.000000 40.000626 40.000000
vn 0.000000 -2.443461 0.000000
v -50.000000 -40.000626 118.372795
vn 0.000000 -4.712389 0.000000
v -50.000000 -40.000626 96.400009
vn 0.000000 -2.268928 0.000000
v -23.042074 -40.000626 150.500000
vn 0.000000 -2.268928 0.000000
v 22.916616 -40.000626 150.500000
vn 0.000000 -2.443461 0.000000
v 50.250000 -40.000626 117.925346
vn 0.000000 -4.712389 0.000000
v -50.000000 -40.000626 40.000000
vn 0.000000 -1.570796 0.000000
v -50.000000 -40.000626 0.000000
vn 0.000000 -1.570796 0.000000
v 50.250000 -40.000626 0.000000
vn 0.000000 -1.570796 0.000000
v -199.510910 -40.000626 40.000000
vn 0.000000 -1.570796 0.000000
v -199.510910 -40.000626 96.400009
vn 0.000000 4.712389 0.000000
v -50.000000 40.000626 96.400009
vn 0.000000 2.443461 0.000000
v -50.000000 40.000626 118.372795
vn 0.000000 2.268928 0.000000
v -23.042074 40.000626 150.500000
vn 0.000000 2.268928 0.000000
v 22.916616 40.000626 150.500000
vn 0.000000 2.443461 0.000000
v 50.250000 40.000626 117.925346
vn 0.000000 1.570796 0.000000
v -199.510910 40.000626 96.400009
vn 0.000000 1.570796 0.000000
v -199.510910 40.000626 40.000000
vn 0.000000 1.570796 0.000000
v -50.000000 40.000626 0.000000
vn 0.000000 4.712389 0.000000
v -50.000000 40.000626 40.000000
vn 0.000000 1.570796 0.000000
v 50.250000 40.000626 0.000000
vn -1.570796 0.000000 0.000000
v -50.000000 -40.000626 96.400009
vn -2.774096 0.000000 1.009688
v -50.000000 -40.000626 118.372795
vn -1.203300 0.000000 1.009688
v -23.042074 -40.000626 150.500000
vn -1.570796 0.000000 0.000000
v -50.000000 40.000626 96.400009
vn -2.774096 0.000000 1.009688
v -50.000000 40.000626 118.372795
vn -1.203300 0.000000 1.009688
v -23.042074 40.000626 150.500000
vn 1.203300 0.000000 1.009688
v 22.916616 -40.000626 150.500000
vn 2.774096 0.000000 1.009688
v 50.250000 -40.000626 117.925346
vn 1.570796 0.000000 0.000000
v 50.250000 -40.000626 0.000000
vn 1.203300 0.000000 1.009688
v 22.916616 40.000626 150.500000
vn 2.774096 0.000000 1.009688
v 50.250000 40.000626 117.925346
vn 1.570796 0.000000 0.000000
v 50.250000 40.000626 0.000000
# 56 vertices, 0 vertices normals

f 1//1 2//2 3//3
f 2//2 4//4 3//3
f 5//5 6//6 7//7
f 6//6 8//8 7//7
f 9//9 10//10 11//11
f 10//10 12//12 11//11
f 13//13 14//14 15//15
f 14//14 16//16 15//15
f 17//17 18//18 19//19
f 18//18 20//20 19//19
f 21//21 22//22 23//23
f 22//22 24//24 23//23
f 25//25 26//26 27//27
f 27//27 26//26 28//28
f 28//28 26//26 29//29
f 32//32 29//29 30//30
f 30//30 31//31 32//32
f 33//33 30//30 26//26
f 34//34 33//33 26//26
f 26//26 30//30 29//29
f 40//40 35//35 41//41
f 35//35 43//43 41//41
f 42//42 43//43 44//44
f 44//44 43//43 39//39
f 35//35 38//38 39//39
f 35//35 37//37 38//38
f 35//35 36//36 37//37
f 35//35 39//39 43//43
f 45//45 46//46 49//49
f 45//45 49//49 48//48
f 46//46 47//47 50//50
f 46//46 50//50 49//49
f 51//51 52//52 55//55
f 51//51 55//55 54//54
f 52//52 53//53 56//56
f 52//52 56//56 55//55
# 36 faces, 0 coords texture

# End of File
