####
#
# OBJ File Generated by Meshlab
#
####
# Object Joint2Coll.obj
#
# Vertices: 38
# Faces: 24
#
####
vn 1.570796 0.000000 -0.001249
v 39.953884 -39.699997 -17.902174
vn 1.570796 0.000000 -0.001249
v 39.953884 37.700005 -17.902174
vn 1.570796 0.000000 -0.001249
v 40.198860 -39.699997 290.253906
vn 1.570796 0.000000 -0.001249
v 40.198860 37.700005 290.253906
vn 1.035983 0.000000 -1.180737
v 14.793166 -39.699997 -39.978268
vn 1.035983 0.000000 -1.180737
v 14.793166 37.700005 -39.978268
vn 1.035983 0.000000 -1.180737
v 39.953884 -39.699997 -17.902174
vn 1.035983 0.000000 -1.180737
v 39.953884 37.700005 -17.902174
vn -1.568243 0.000000 -0.089523
v -38.830032 37.700005 -21.635899
vn -1.568243 0.000000 -0.089523
v -38.830032 -39.699997 -21.635899
vn -1.568243 0.000000 -0.089523
v -57.602631 37.700005 307.216431
vn -1.568243 0.000000 -0.089523
v -57.602631 -39.699997 307.216431
vn 0.000000 -2.540970 0.000000
v -12.054820 -39.699997 -39.978268
vn 0.000000 -2.421403 0.000000
v 14.793166 -39.699997 -39.978268
vn 0.000000 -2.291781 0.000000
v 39.953884 -39.699997 -17.902174
vn 0.000000 -2.200201 0.000000
v 40.198860 -39.699997 290.253937
vn 0.000000 -2.454369 0.000000
v 11.533424 -39.699997 311.163116
vn 0.000000 -1.570797 0.000000
v -57.602631 -39.699997 307.216431
vn 0.000000 -2.228442 0.000000
v -38.830032 -39.699997 -21.635893
vn 0.000000 2.421403 0.000000
v 14.793166 37.700005 -39.978268
vn 0.000000 2.540970 0.000000
v -12.054820 37.700005 -39.978268
vn 0.000000 2.291781 0.000000
v 39.953884 37.700005 -17.902174
vn 0.000000 2.454369 0.000000
v 11.533424 37.700005 311.163116
vn 0.000000 2.200201 0.000000
v 40.198860 37.700005 290.253937
vn 0.000000 1.570797 0.000000
v -57.602634 37.700005 307.216431
vn 0.000000 2.228442 0.000000
v -38.830032 37.700005 -21.635893
vn -0.089524 0.000000 1.568243
v -57.602631 -39.699997 307.216431
vn 0.836157 0.000000 2.837305
v 11.533425 -39.699997 311.163086
vn 0.925681 0.000000 1.269061
v 40.198856 -39.699997 290.253906
vn -0.089524 0.000000 1.568243
v -57.602631 37.700005 307.216431
vn 0.836157 0.000000 2.837305
v 11.533425 37.700005 311.163086
vn 0.925681 0.000000 1.269062
v 40.198856 37.700005 290.253906
vn 0.000000 0.000000 -1.570796
v 14.793166 -39.699997 -39.978268
vn -0.887745 0.000000 -2.866679
v -12.054819 -39.699997 -39.978268
vn -0.887745 0.000000 -1.295882
v -38.830032 -39.699997 -21.635893
vn 0.000000 0.000000 -1.570796
v 14.793166 37.700005 -39.978268
vn -0.887745 0.000000 -2.866679
v -12.054819 37.700005 -39.978268
vn -0.887745 0.000000 -1.295882
v -38.830032 37.700005 -21.635893
# 38 vertices, 0 vertices normals

f 1//1 2//2 3//3
f 2//2 4//4 3//3
f 5//5 6//6 7//7
f 6//6 8//8 7//7
f 9//9 10//10 11//11
f 10//10 12//12 11//11
f 19//19 13//13 15//15
f 19//19 16//16 18//18
f 16//16 17//17 18//18
f 19//19 15//15 16//16
f 13//13 14//14 15//15
f 20//20 21//21 22//22
f 24//24 22//22 26//26
f 23//23 24//24 25//25
f 25//25 24//24 26//26
f 21//21 26//26 22//22
f 27//27 28//28 31//31
f 27//27 31//31 30//30
f 28//28 29//29 32//32
f 28//28 32//32 31//31
f 33//33 34//34 37//37
f 33//33 37//37 36//36
f 34//34 35//35 38//38
f 34//34 38//38 37//37
# 24 faces, 0 coords texture

# End of File
