####
#
# OBJ File Generated by Meshlab
#
####
# Object Joint4Coll.obj
#
# Vertices: 34
# Faces: 20
#
####
vn 0.000000 0.000000 1.570796
v -25.000000 -32.700001 158.500000
vn 0.000000 0.000000 1.570796
v 18.520508 -32.700001 158.500000
vn 0.000000 0.000000 1.570796
v -25.000000 32.700001 158.500000
vn 0.000000 0.000000 1.570796
v 18.520508 32.700001 158.500000
vn 1.569477 0.000000 0.064368
v 25.464291 -32.700001 -10.808210
vn 1.569477 0.000000 0.064368
v 25.464291 32.700001 -10.808210
vn 1.569477 0.000000 0.064368
v 18.520508 -32.700001 158.500000
vn 1.569477 0.000000 0.064368
v 18.520508 32.700001 158.500000
vn 1.031838 0.000000 -1.184361
v 9.180745 -32.700001 -24.994749
vn 1.031838 0.000000 -1.184361
v 9.180745 32.700001 -24.994749
vn 1.031838 0.000000 -1.184361
v 25.464291 -32.700001 -10.808210
vn 1.031838 0.000000 -1.184361
v 25.464291 32.700001 -10.808210
vn -1.570796 0.000000 0.000000
v -25.000000 32.700001 -11.842609
vn -1.570796 0.000000 0.000000
v -25.000000 -32.700001 -11.842609
vn -1.570796 0.000000 0.000000
v -25.000000 32.700001 158.500000
vn -1.570796 0.000000 0.000000
v -25.000000 -32.700001 158.500000
vn 0.000000 -2.465898 0.000000
v -8.591945 -32.700001 -24.994749
vn 0.000000 -2.424908 0.000000
v 9.180744 -32.700001 -24.994749
vn 0.000000 -2.246492 0.000000
v 25.464289 -32.700001 -10.808210
vn 0.000000 -2.246491 0.000000
v -25.000000 -32.700001 -11.842612
vn 0.000000 -1.611786 0.000000
v 18.520508 -32.700001 158.500000
vn 0.000000 -1.570796 0.000000
v -25.000000 -32.700001 158.500000
vn 0.000000 2.424908 0.000000
v 9.180745 32.700001 -24.994749
vn 0.000000 2.465898 0.000000
v -8.591944 32.700001 -24.994749
vn 0.000000 2.246491 0.000000
v 25.464291 32.700001 -10.808210
vn 0.000000 2.246491 0.000000
v -25.000000 32.700001 -11.842612
vn 0.000000 1.570796 0.000000
v -25.000000 32.700001 158.500000
vn 0.000000 1.611786 0.000000
v 18.520508 32.700001 158.500000
vn 0.000000 0.000000 -1.570796
v 9.180745 -32.700001 -24.994749
vn -0.982438 0.000000 -2.796445
v -8.591946 -32.700001 -24.994749
vn -0.982439 0.000000 -1.225649
v -25.000000 -32.700001 -11.842612
vn 0.000000 0.000000 -1.570796
v 9.180745 32.700001 -24.994749
vn -0.982439 0.000000 -2.796446
v -8.591946 32.700001 -24.994749
vn -0.982438 0.000000 -1.225649
v -25.000000 32.700001 -11.842612
# 34 vertices, 0 vertices normals

f 1//1 2//2 3//3
f 2//2 4//4 3//3
f 5//5 6//6 7//7
f 6//6 8//8 7//7
f 9//9 10//10 11//11
f 10//10 12//12 11//11
f 13//13 14//14 15//15
f 14//14 16//16 15//15
f 20//20 17//17 19//19
f 21//21 22//22 20//20
f 19//19 21//21 20//20
f 17//17 18//18 19//19
f 23//23 24//24 25//25
f 25//25 26//26 28//28
f 27//27 28//28 26//26
f 25//25 24//24 26//26
f 29//29 30//30 33//33
f 29//29 33//33 32//32
f 30//30 31//31 34//34
f 30//30 34//34 33//33
# 20 faces, 0 coords texture

# End of File
