####
#
# OBJ File Generated by Meshlab
#
####
# Object Joint3Coll.obj
#
# Vertices: 38
# Faces: 24
#
####
vn 1.569336 0.000000 -0.067706
v 29.302202 -32.700001 -13.602131
vn 1.569336 0.000000 -0.067706
v 29.302202 32.700001 -13.602131
vn 1.569336 0.000000 -0.067706
v 41.145454 -32.700001 260.909729
vn 1.569336 0.000000 -0.067706
v 41.145454 32.700001 260.909729
vn 1.064085 0.000000 -1.155475
v 11.548940 -32.700001 -29.951239
vn 1.064085 0.000000 -1.155475
v 11.548940 32.700001 -29.951239
vn 1.064085 0.000000 -1.155475
v 29.302202 -32.700001 -13.602131
vn 1.064085 0.000000 -1.155475
v 29.302202 32.700001 -13.602131
vn -1.561904 0.000000 -0.166900
v -28.438562 32.700001 -16.210369
vn -1.561904 0.000000 -0.166900
v -28.438562 -32.700001 -16.210369
vn -1.561904 0.000000 -0.166900
v -59.462971 32.700001 274.125580
vn -1.561904 0.000000 -0.166900
v -59.462971 -32.700001 274.125580
vn 0.000000 -2.511393 0.000000
v -9.600521 -32.700001 -29.951239
vn 0.000000 -2.397346 0.000000
v 11.548940 -32.700001 -29.951239
vn 0.000000 -2.358160 0.000000
v 29.302202 -32.700001 -13.602131
vn 0.000000 -2.108451 0.000000
v 41.145454 -32.700001 260.909729
vn 0.000000 -2.454369 0.000000
v 9.739729 -32.700001 281.520386
vn 0.000000 -1.570797 0.000000
v -59.462971 -32.700001 274.125580
vn 0.000000 -2.307450 0.000000
v -28.438562 -32.700001 -16.210369
vn 0.000000 2.397346 0.000000
v 11.548940 32.700001 -29.951239
vn 0.000000 2.511393 0.000000
v -9.600521 32.700001 -29.951239
vn 0.000000 2.358160 0.000000
v 29.302202 32.700001 -13.602131
vn 0.000000 2.454369 0.000000
v 9.739729 32.700001 281.520386
vn 0.000000 2.108451 0.000000
v 41.145454 32.700001 260.909729
vn 0.000000 1.570797 0.000000
v -59.462963 32.700001 274.125580
vn 0.000000 2.307450 0.000000
v -28.438562 32.700001 -16.210369
vn -0.166901 0.000000 1.561905
v -59.462971 -32.700001 274.125580
vn 0.694946 0.000000 2.875153
v 9.739724 -32.700001 281.520386
vn 0.861847 0.000000 1.313249
v 41.145454 -32.700001 260.909729
vn -0.166901 0.000000 1.561904
v -59.462971 32.700001 274.125580
vn 0.694946 0.000000 2.875153
v 9.739724 32.700001 281.520386
vn 0.861846 0.000000 1.313249
v 41.145454 32.700001 260.909729
vn 0.000000 0.000000 -1.570797
v 11.548940 -32.700001 -29.951239
vn -0.925680 0.000000 -2.839858
v -9.600521 -32.700001 -29.951239
vn -0.925680 0.000000 -1.269061
v -28.438562 -32.700001 -16.210369
vn 0.000000 0.000000 -1.570796
v 11.548940 32.700001 -29.951239
vn -0.925680 0.000000 -2.839858
v -9.600521 32.700001 -29.951239
vn -0.925680 0.000000 -1.269061
v -28.438562 32.700001 -16.210369
# 38 vertices, 0 vertices normals

f 1//1 2//2 3//3
f 2//2 4//4 3//3
f 5//5 6//6 7//7
f 6//6 8//8 7//7
f 9//9 10//10 11//11
f 10//10 12//12 11//11
f 19//19 13//13 15//15
f 19//19 16//16 18//18
f 16//16 17//17 18//18
f 19//19 15//15 16//16
f 13//13 14//14 15//15
f 20//20 21//21 22//22
f 24//24 22//22 26//26
f 23//23 24//24 25//25
f 25//25 24//24 26//26
f 21//21 26//26 22//22
f 27//27 28//28 31//31
f 27//27 31//31 30//30
f 28//28 29//29 32//32
f 28//28 32//32 31//31
f 33//33 34//34 37//37
f 33//33 37//37 36//36
f 34//34 35//35 38//38
f 34//34 38//38 37//37
# 24 faces, 0 coords texture

# End of File
